<svg xmlns="http://www.w3.org/2000/svg" width="9.945" height="15.004" viewBox="0 0 9.945 15.004">
  <g id="Group_2776" data-name="Group 2776" transform="translate(-1396.213 -413.622)">
    <g id="Group_2634" data-name="Group 2634" transform="translate(1396.5 413.909)" opacity="0.6">
      <g id="Group_2633" data-name="Group 2633" transform="translate(0 5.048) rotate(-90)">
        <path id="Path_7047" data-name="Path 7047" d="M4.943,4.428.615.1a.361.361,0,0,0-.51.51L4.178,4.683.106,8.755a.361.361,0,0,0,.51.51L4.943,4.938A.361.361,0,0,0,4.943,4.428Z" fill="#8f9198" stroke="#8f9198" stroke-width="0.5"/>
      </g>
    </g>
    <g id="Group_2632" data-name="Group 2632" transform="translate(1405.871 423.291) rotate(90)" opacity="0.597">
      <path id="Path_7047-2" data-name="Path 7047" d="M4.943,4.428.615.1a.361.361,0,0,0-.51.51L4.178,4.683.106,8.755a.361.361,0,0,0,.51.51L4.943,4.938A.361.361,0,0,0,4.943,4.428Z" transform="translate(0 0)" fill="#8f9198" stroke="#8f9198" stroke-width="0.5"/>
    </g>
  </g>
</svg>
