<svg xmlns="http://www.w3.org/2000/svg" width="22.506" height="22.506" viewBox="0 0 22.506 22.506">
  <path id="Path_6947" data-name="Path 6947" d="M11.254,0A11.253,11.253,0,1,0,22.507,11.253,11.253,11.253,0,0,0,11.254,0ZM16.6,8.1,15.534,9.167,13.359,6.991l-.825.825,2.176,2.176L9.372,15.328,7.2,13.153l-.825.825,2.176,2.175-.532.532-.01-.01a.421.421,0,0,1-.269.193l-2.029.452a.422.422,0,0,1-.5-.5l.452-2.028a.422.422,0,0,1,.193-.269l-.01-.01,8.588-8.588a.323.323,0,0,1,.456,0L16.6,7.642A.323.323,0,0,1,16.6,8.1Z" transform="translate(-0.001)" fill="#0072ff"/>
</svg>
